<svg width="96" height="96" viewBox="0 0 96 96" fill="none" xmlns="http://www.w3.org/2000/svg">
<path d="M48.0024 6.49512C25.3235 6.49512 6.87451 24.9441 6.87451 47.623C6.87451 70.3019 25.3259 88.7509 48.0024 88.7509C70.6789 88.7509 89.1255 70.2995 89.1255 47.623C89.1255 24.9465 70.6789 6.49512 48.0024 6.49512ZM48.0024 85.1884C27.2876 85.1884 10.437 68.3354 10.437 47.623C10.437 26.9106 27.2876 10.0576 48.0024 10.0576C68.7148 10.0576 85.563 26.9106 85.563 47.623C85.563 68.3354 68.7148 85.1884 48.0024 85.1884Z" fill="black"/>
<path d="M48.0306 54.0284C44.8862 54.0208 41.7926 54.821 39.0462 56.3522C36.2998 57.8834 33.9928 60.0943 32.3461 62.7731C32.2221 62.9741 32.1829 63.2161 32.2373 63.4459C32.2916 63.6757 32.435 63.8745 32.6359 63.9986L33.9944 64.837C34.1951 64.9603 34.4366 64.999 34.6658 64.9447C34.895 64.8904 35.0934 64.7475 35.2175 64.5472C36.5591 62.3555 38.4424 60.5462 40.6862 59.2937C42.93 58.0412 45.4586 57.3877 48.0283 57.3961C50.5827 57.3879 53.0967 58.0337 55.3309 59.2722C57.5651 60.5107 59.445 62.3005 60.7915 64.4713C60.9176 64.6701 61.1171 64.8111 61.3466 64.8636C61.5761 64.916 61.817 64.8758 62.017 64.7515L63.366 63.906C63.4659 63.8449 63.5526 63.7644 63.621 63.6693C63.6894 63.5742 63.738 63.4664 63.7641 63.3523C63.7902 63.2381 63.7933 63.1198 63.773 63.0045C63.7528 62.8891 63.7097 62.779 63.6463 62.6805C61.9962 60.0273 59.6956 57.8398 56.9626 56.3255C54.2296 54.8113 51.1551 54.0206 48.0306 54.0284Z" fill="black"/>
<path d="M37.1484 40.6143C38.5178 40.6143 39.6279 39.5042 39.6279 38.1348C39.6279 36.7654 38.5178 35.6553 37.1484 35.6553C35.7791 35.6553 34.6689 36.7654 34.6689 38.1348C34.6689 39.5042 35.7791 40.6143 37.1484 40.6143Z" fill="black"/>
<path d="M58.8491 40.6143C60.2185 40.6143 61.3286 39.5042 61.3286 38.1348C61.3286 36.7654 60.2185 35.6553 58.8491 35.6553C57.4797 35.6553 56.3696 36.7654 56.3696 38.1348C56.3696 39.5042 57.4797 40.6143 58.8491 40.6143Z" fill="black"/>
</svg>
