<svg width="25" height="24" viewBox="0 0 25 24" fill="none" xmlns="http://www.w3.org/2000/svg">
<g clip-path="url(#clip0_1264_1122)">
<mask id="mask0_1264_1122" style="mask-type:luminance" maskUnits="userSpaceOnUse" x="0" y="0" width="25" height="24">
<path d="M12.3564 24C18.9839 24 24.3564 18.6274 24.3564 12C24.3564 5.37258 18.9839 0 12.3564 0C5.72903 0 0.356445 5.37258 0.356445 12C0.356445 18.6274 5.72903 24 12.3564 24Z" fill="white"/>
</mask>
<g mask="url(#mask0_1264_1122)">
<path d="M0.356445 0L0.731445 1.03125L0.356445 2.10938V3.1875L1.85645 5.71875L0.356445 8.25V9.75L1.85645 12L0.356445 14.25V15.75L1.85645 18.2812L0.356445 20.8125V24L1.3877 23.625L2.46582 24H3.54395L6.0752 22.5L8.60645 24H10.1064L12.3564 22.5L14.6064 24H16.1064L18.6377 22.5L21.1689 24H24.3564L23.9814 22.9688L24.3564 21.8906V20.8125L22.8564 18.2812L24.3564 15.75V14.25L22.8564 12L24.3564 9.75V8.25L22.8564 5.71875L24.3564 3.1875V0L23.3252 0.375L22.2471 0H21.1689L18.6377 1.5L16.1064 0H14.6064L12.3564 1.5L10.1064 0H8.60645L6.0752 1.5L3.54395 0H0.356445Z" fill="#EEEEEE"/>
<path d="M16.1064 0V5.0625L21.1689 0H16.1064ZM24.3564 3.1875L19.2939 8.25H24.3564V3.1875ZM0.356445 8.25H5.41895L0.356445 3.1875V8.25ZM3.54395 0L8.60645 5.0625V0H3.54395ZM8.60645 24V18.9375L3.54395 24H8.60645ZM0.356445 20.8125L5.41895 15.75H0.356445V20.8125ZM24.3564 15.75H19.2939L24.3564 20.8125V15.75ZM21.1689 24L16.1064 18.9375V24H21.1689Z" fill="#0052B4"/>
<path d="M0.356445 0V2.10938L6.49707 8.25H8.60645L0.356445 0ZM10.1064 0V9.75H0.356445V14.25H10.1064V24H14.6064V14.25H24.3564V9.75H14.6064V0H10.1064ZM22.2471 0L16.1064 6.14062V8.25L24.3564 0H22.2471ZM8.60645 15.75L0.356445 24H2.46582L8.60645 17.8594V15.75ZM16.1064 15.75L24.3564 24V21.8906L18.2158 15.75H16.1064Z" fill="#D80027"/>
</g>
</g>
<defs>
<clipPath id="clip0_1264_1122">
<rect width="24" height="24" fill="white" transform="translate(0.356445)"/>
</clipPath>
</defs>
</svg>
