<svg
    width="100"
    height="100"
    viewBox="0 0 36 36"
    xmlns="http://www.w3.org/2000/svg"
>
    <!-- Define a circular clipping path -->
    <clipPath id="circleClip">
        <circle cx="18" cy="18" r="18" />
    </clipPath>

    <!-- Apply the circular clip to the flag sections -->
    <g clip-path="url(#circleClip)">
        <!-- Outer Circle (White background for padding) -->
        <rect width="36" height="36" fill="white" />
        
        <!-- Orange Section -->
        <rect width="36" height="12" fill="#FF9933" />

        <!-- Green Section -->
        <rect y="24" width="36" height="12" fill="#138808" />

        <!-- Blue Ashoka Chakra -->
        <circle cx="18" cy="18" r="5" fill="none" stroke="#000080" stroke-width="0.6" />
        <g fill="none" stroke="#000080" stroke-width="0.3">
            <path d="M18 13a5 5 0 0 1 0 10 5 5 0 0 1 0-10zm0 0l-1.56 4.9m3.12 0L18 13m2.6 3.8l-3.8 2.6m0-5.2l3.8 2.6m-5.2-2.6l3.8 2.6m0-5.2l-3.8 2.6M18 13l4.9 1.56M13.1 15.6l4.9-1.56" />
        </g>
    </g>
</svg>