<svg width="24" height="24" viewBox="0 0 24 24" fill="none" xmlns="http://www.w3.org/2000/svg">
<g clip-path="url(#clip0_567_13720)">
<path d="M12 23.25C18.225 23.25 23.25 18.225 23.25 12H0.75C0.75 18.225 5.775 23.25 12 23.25Z" fill="#F9F9F9"/>
<path d="M12 0.75C5.775 0.75 0.75 5.775 0.75 12H23.25C23.25 5.775 18.225 0.75 12 0.75Z" fill="#ED4C5C"/>
<path d="M7.95 6.5625L7.5 6.1875H8.0625L8.25 5.625L8.4375 6.1875H9L8.55 6.5625L8.7 7.125L8.25 6.7875L7.8 7.125L7.95 6.5625ZM10.95 6.5625L10.5 6.1875H11.0625L11.25 5.625L11.4375 6.1875H12L11.55 6.5625L11.7 7.125L11.25 6.7875L10.8 7.125L10.95 6.5625ZM8.325 8.4375L7.875 8.0625H8.4375L8.625 7.5L8.8125 8.0625H9.375L8.925 8.4375L9.075 9L8.625 8.6625L8.175 9L8.325 8.4375ZM10.575 8.4375L10.125 8.0625H10.6875L10.875 7.5L11.0625 8.0625H11.625L11.175 8.4375L11.325 9L10.875 8.6625L10.425 9L10.575 8.4375ZM9.45 5.4375L9 5.0625H9.5625L9.75 4.5L9.9375 5.0625H10.5L10.05 5.4375L10.2 6L9.75 5.6625L9.3 6L9.45 5.4375Z" fill="#F9F9F9"/>
<path d="M9.15 10.5C7.35 10.5 5.925 8.9625 5.925 7.0875C5.925 5.2125 7.3875 3.675 9.15 3.675C9.3 3.675 9.4125 3.675 9.525 3.7125C9.075 3.4875 8.5875 3.375 8.0625 3.375C6.1125 3.375 4.5 5.0625 4.5 7.125C4.5 9.1875 6.1125 10.875 8.0625 10.875C8.6625 10.875 9.2625 10.725 9.75 10.425C9.5625 10.4625 9.375 10.5 9.15 10.5Z" fill="#F9F9F9"/>
</g>
<defs>
<clipPath id="clip0_567_13720">
<rect width="24" height="24" fill="white"/>
</clipPath>
</defs>
</svg>
