<svg width="100" height="78" viewBox="0 0 100 78" fill="none" xmlns="http://www.w3.org/2000/svg">
<path d="M86.5947 7.55859L99.958 21.0978L50.6847 71.0836L23.958 43.9732L37.3213 30.434L50.6847 43.9732L86.5947 7.55859ZM86.5947 16.5419L50.6847 52.9886L37.3213 39.6098L32.8563 43.9732L50.6847 62.004L91.0597 21.0978L86.5947 16.5419Z" fill="#1A1A1A"/>
<g opacity="0.6" clip-path="url(#clip0_488_10771)">
<path d="M90.572 66.5281C90.6958 66.1569 91.22 66.1569 91.3438 66.5281L92.0694 68.7073C92.2291 69.1863 92.4982 69.6215 92.8554 69.9785C93.2125 70.3355 93.6479 70.6043 94.127 70.7638L96.305 71.4894C96.6763 71.6131 96.6763 72.1374 96.305 72.2611L94.1259 72.9868C93.6469 73.1465 93.2116 73.4156 92.8547 73.7727C92.4977 74.1299 92.2289 74.5653 92.0694 75.0444L91.3438 77.2224C91.3171 77.3037 91.2654 77.3745 91.1961 77.4247C91.1269 77.4749 91.0435 77.5019 90.9579 77.5019C90.8724 77.5019 90.789 77.4749 90.7197 77.4247C90.6504 77.3745 90.5987 77.3037 90.572 77.2224L89.8464 75.0433C89.6868 74.5644 89.4179 74.1292 89.0609 73.7723C88.704 73.4153 88.2688 73.1464 87.7899 72.9868L85.6108 72.2611C85.5295 72.2345 85.4587 72.1828 85.4085 72.1135C85.3583 72.0442 85.3313 71.9608 85.3313 71.8753C85.3313 71.7897 85.3583 71.7063 85.4085 71.637C85.4587 71.5677 85.5295 71.5161 85.6108 71.4894L87.7899 70.7638C88.2688 70.6042 88.704 70.3352 89.0609 69.9783C89.4179 69.6213 89.6868 69.1862 89.8464 68.7073L90.572 66.5281ZM86.2262 60.7918C86.2423 60.743 86.2734 60.7007 86.315 60.6706C86.3566 60.6406 86.4066 60.6244 86.4579 60.6244C86.5092 60.6244 86.5593 60.6406 86.6009 60.6706C86.6425 60.7007 86.6735 60.743 86.6897 60.7918L87.125 62.099C87.3197 62.6818 87.7764 63.1385 88.3592 63.3331L89.6664 63.7685C89.7151 63.7847 89.7575 63.8157 89.7876 63.8573C89.8176 63.8989 89.8338 63.9489 89.8338 64.0003C89.8338 64.0516 89.8176 64.1016 89.7876 64.1432C89.7575 64.1848 89.7151 64.2159 89.6664 64.232L88.3592 64.6674C88.0716 64.7628 87.8103 64.9241 87.596 65.1384C87.3818 65.3526 87.2205 65.6139 87.125 65.9015L86.6897 67.2088C86.6735 67.2575 86.6425 67.2999 86.6009 67.3299C86.5593 67.36 86.5092 67.3762 86.4579 67.3762C86.4066 67.3762 86.3566 67.36 86.315 67.3299C86.2734 67.2999 86.2423 67.2575 86.2262 67.2088L85.7908 65.9015C85.6953 65.6139 85.5341 65.3526 85.3198 65.1384C85.1056 64.9241 84.8442 64.7628 84.5567 64.6674L83.2494 64.232C83.2007 64.2159 83.1583 64.1848 83.1283 64.1432C83.0982 64.1016 83.082 64.0516 83.082 64.0003C83.082 63.9489 83.0982 63.8989 83.1283 63.8573C83.1583 63.8157 83.2007 63.7847 83.2494 63.7685L84.5567 63.3331C84.8442 63.2377 85.1056 63.0764 85.3198 62.8622C85.5341 62.6479 85.6953 62.3866 85.7908 62.099L86.2262 60.7918ZM94.1788 59.6116C94.1899 59.5796 94.2107 59.5518 94.2383 59.5322C94.266 59.5125 94.299 59.502 94.3329 59.502C94.3668 59.502 94.3999 59.5125 94.4275 59.5322C94.4551 59.5518 94.4759 59.5796 94.487 59.6116L94.7773 60.4824C94.9067 60.8716 95.2115 61.1765 95.6008 61.3059L96.4715 61.5961C96.5036 61.6072 96.5314 61.6281 96.551 61.6557C96.5707 61.6833 96.5812 61.7164 96.5812 61.7503C96.5812 61.7842 96.5707 61.8172 96.551 61.8449C96.5314 61.8725 96.5036 61.8933 96.4715 61.9044L95.6008 62.1946C95.4091 62.2588 95.235 62.3665 95.0921 62.5094C94.9492 62.6523 94.8414 62.8265 94.7773 63.0181L94.487 63.8889C94.4759 63.9209 94.4551 63.9487 94.4275 63.9684C94.3999 63.988 94.3668 63.9986 94.3329 63.9986C94.299 63.9986 94.266 63.988 94.2383 63.9684C94.2107 63.9487 94.1899 63.9209 94.1788 63.8889L93.8885 63.0181C93.8244 62.8265 93.7167 62.6523 93.5737 62.5094C93.4308 62.3665 93.2567 62.2588 93.065 62.1946L92.1954 61.9044C92.1634 61.8933 92.1356 61.8725 92.1159 61.8449C92.0963 61.8172 92.0857 61.7842 92.0857 61.7503C92.0857 61.7164 92.0963 61.6833 92.1159 61.6557C92.1356 61.6281 92.1634 61.6072 92.1954 61.5961L93.0662 61.3059C93.4554 61.1765 93.7603 60.8716 93.8897 60.4824L94.1788 59.6116Z" fill="#1A1A1A"/>
</g>
<g opacity="0.6" clip-path="url(#clip1_488_10771)">
<path d="M7.13138 21.5754C7.22075 21.3073 7.59938 21.3073 7.68875 21.5754L8.21281 23.1493C8.32817 23.4952 8.52251 23.8096 8.78046 24.0674C9.0384 24.3252 9.35285 24.5193 9.69888 24.6345L11.2719 25.1586C11.54 25.2479 11.54 25.6266 11.2719 25.7159L9.69806 26.24C9.3521 26.3554 9.03776 26.5497 8.77996 26.8077C8.52215 27.0656 8.32798 27.38 8.21281 27.7261L7.68875 29.2991C7.66948 29.3578 7.63216 29.4089 7.58212 29.4452C7.53207 29.4814 7.47186 29.5009 7.41006 29.5009C7.34827 29.5009 7.28805 29.4814 7.23801 29.4452C7.18796 29.4089 7.15064 29.3578 7.13138 29.2991L6.60731 27.7253C6.49204 27.3794 6.29782 27.0651 6.04002 26.8073C5.78222 26.5495 5.46794 26.3553 5.12206 26.24L3.54825 25.7159C3.48954 25.6967 3.43841 25.6594 3.40216 25.6093C3.36592 25.5593 3.3464 25.4991 3.3464 25.4373C3.3464 25.3755 3.36592 25.3153 3.40216 25.2652C3.43841 25.2152 3.48954 25.1778 3.54825 25.1586L5.12206 24.6345C5.46794 24.5192 5.78222 24.325 6.04002 24.0672C6.29782 23.8094 6.49204 23.4951 6.60731 23.1493L7.13138 21.5754ZM3.99269 17.4325C4.00434 17.3973 4.02678 17.3667 4.05683 17.345C4.08688 17.3233 4.123 17.3116 4.16006 17.3116C4.19713 17.3116 4.23325 17.3233 4.2633 17.345C4.29334 17.3667 4.31579 17.3973 4.32744 17.4325L4.64188 18.3766C4.78244 18.7975 5.11231 19.1274 5.53319 19.2679L6.47731 19.5824C6.5125 19.594 6.54312 19.6165 6.56482 19.6465C6.58652 19.6766 6.5982 19.7127 6.5982 19.7498C6.5982 19.7868 6.58652 19.8229 6.56482 19.853C6.54312 19.883 6.5125 19.9055 6.47731 19.9171L5.53319 20.2316C5.32549 20.3005 5.13676 20.417 4.98202 20.5717C4.82728 20.7265 4.71081 20.9152 4.64188 21.1229L4.32744 22.067C4.31579 22.1022 4.29334 22.1328 4.2633 22.1545C4.23325 22.1762 4.19713 22.1879 4.16006 22.1879C4.123 22.1879 4.08688 22.1762 4.05683 22.1545C4.02678 22.1328 4.00434 22.1022 3.99269 22.067L3.67825 21.1229C3.60932 20.9152 3.49285 20.7265 3.33811 20.5717C3.18337 20.417 2.99463 20.3005 2.78694 20.2316L1.84281 19.9171C1.80763 19.9055 1.77701 19.883 1.75531 19.853C1.7336 19.8229 1.72192 19.7868 1.72192 19.7498C1.72192 19.7127 1.7336 19.6766 1.75531 19.6465C1.77701 19.6165 1.80763 19.594 1.84281 19.5824L2.78694 19.2679C2.99463 19.199 3.18337 19.0825 3.33811 18.9278C3.49285 18.7731 3.60932 18.5843 3.67825 18.3766L3.99269 17.4325ZM9.73625 16.5802C9.74427 16.5571 9.7593 16.537 9.77925 16.5228C9.7992 16.5086 9.82308 16.501 9.84756 16.501C9.87205 16.501 9.89593 16.5086 9.91587 16.5228C9.93582 16.537 9.95085 16.5571 9.95887 16.5802L10.1685 17.2091C10.2619 17.4902 10.4821 17.7104 10.7632 17.8038L11.3921 18.0134C11.4153 18.0215 11.4353 18.0365 11.4495 18.0564C11.4637 18.0764 11.4713 18.1003 11.4713 18.1248C11.4713 18.1492 11.4637 18.1731 11.4495 18.1931C11.4353 18.213 11.4153 18.2281 11.3921 18.2361L10.7632 18.4457C10.6248 18.492 10.4991 18.5698 10.3959 18.673C10.2926 18.7763 10.2148 18.902 10.1685 19.0404L9.95887 19.6693C9.95085 19.6925 9.93582 19.7125 9.91587 19.7267C9.89593 19.7409 9.87205 19.7485 9.84756 19.7485C9.82308 19.7485 9.7992 19.7409 9.77925 19.7267C9.7593 19.7125 9.74427 19.6925 9.73625 19.6693L9.52662 19.0404C9.48031 18.902 9.40248 18.7763 9.29927 18.673C9.19606 18.5698 9.07029 18.492 8.93188 18.4457L8.30381 18.2361C8.28068 18.2281 8.26062 18.213 8.24642 18.1931C8.23222 18.1731 8.22459 18.1492 8.22459 18.1248C8.22459 18.1003 8.23222 18.0764 8.24642 18.0564C8.26062 18.0365 8.28068 18.0215 8.30381 18.0134L8.93269 17.8038C9.21381 17.7104 9.434 17.4902 9.52744 17.2091L9.73625 16.5802Z" fill="#1A1A1A"/>
</g>
<defs>
<clipPath id="clip0_488_10771">
<rect width="18" height="18" fill="white" transform="translate(81.958 59.5)"/>
</clipPath>
<clipPath id="clip1_488_10771">
<rect width="13" height="13" fill="white" transform="translate(0.910156 16.5)"/>
</clipPath>
</defs>
</svg>
